<?xml version="1.0" encoding="utf-8"?>
<!-- Generator: Adobe Illustrator 15.0.0, SVG Export Plug-In . SVG Version: 6.00 Build 0)  -->
<!DOCTYPE svg PUBLIC "-//W3C//DTD SVG 1.1//EN" "http://www.w3.org/Graphics/SVG/1.1/DTD/svg11.dtd">
<svg version="1.1" id="Capa_1" xmlns="http://www.w3.org/2000/svg" xmlns:xlink="http://www.w3.org/1999/xlink" x="0px" y="0px"
	 width="400px" height="400px" viewBox="0 0 400 400" enable-background="new 0 0 400 400" xml:space="preserve">
<g>
	<path fill="#2E3E39" d="M65.284,59.632c-26.085,0-43.137,17.128-43.137,39.64c0,22.015,16.544,39.631,42.136,39.631h0.492
		c26.597,0,43.146-17.616,43.146-39.631C107.423,76.76,91.37,59.632,65.284,59.632z"/>
	<path fill="#2E3E39" d="M26.654,170.223h76.251v229.407H26.654V170.223z"/>
	<path fill="#2E3E39" d="M290.069,164.84c-41.137,0-68.72,38.656-68.72,38.656v-33.271h-76.254v229.407h76.253v-128.11
		c0-6.86,0.496-13.704,2.512-18.612c5.511-13.689,18.056-27.881,39.12-27.881c27.592,0,38.628,21.039,38.628,51.878v122.727h76.245
		v-131.54C377.85,197.631,340.232,164.84,290.069,164.84z"/>
</g>
</svg>
